<?xml version="1.0" encoding="UTF-8"?>
<svg width="177px" height="163px" viewBox="0 0 177 163" version="1.1" xmlns="http://www.w3.org/2000/svg" xmlns:xlink="http://www.w3.org/1999/xlink">
    <!-- Generator: Sketch 48.2 (47327) - http://www.bohemiancoding.com/sketch -->
    <title>Presentr Logo</title>
    <desc>Created with Sketch.</desc>
    <defs>
        <rect id="path-1" x="0" y="0" width="177" height="138" rx="8"></rect>
        <rect id="path-2" x="74" y="133" width="29" height="28"></rect>
    </defs>
    <g id="Page-1" stroke="none" stroke-width="1" fill="none" fill-rule="evenodd">
        <g id="Rectangle">
            <use fill="#FFFFFF" fill-rule="evenodd" xlink:href="#path-1"></use>
            <rect stroke="#9B9B9B" stroke-width="5" x="2.5" y="2.5" width="172" height="133" rx="8"></rect>
        </g>
        <g id="Rectangle-2">
            <use fill="#FFFFFF" fill-rule="evenodd" xlink:href="#path-2"></use>
            <rect stroke="#9B9B9B" stroke-width="5" x="76.5" y="135.5" width="24" height="23"></rect>
        </g>
        <path d="M31.5,158.5 L146.5,158.5" id="Line" stroke="#9B9B9B" stroke-width="5" stroke-linecap="square"></path>
        <g id="chemicals-icon-vector-pdv" transform="translate(62.000000, 11.000000)" fill-rule="nonzero">
            <path d="M24.5,3 C23.6728942,3 23,2.3270695 23,1.500081 C23,0.672930504 23.6728942,0 24.5,0 C25.3271058,0 26,0.672930504 26,1.500081 C26,2.3270695 25.3271058,3 24.5,3" id="path63924" fill="#7ED321"></path>
            <path d="M30,7 C28.8971093,7 28,6.10263738 28,5 C28,3.89736262 28.8971093,3 30,3 C31.1027274,3 32,3.89736262 32,5 C32,6.10263738 31.1027274,7 30,7" id="path63722" fill="#7ED321"></path>
            <path d="M26,9 C25.4484431,9 25,8.55152179 25,8.00007824 C25,7.44847821 25.4484431,7 26,7 C26.5514004,7 27,7.44847821 27,8.00007824 C27,8.55152179 26.5514004,9 26,9" id="path64150" fill="#7ED321"></path>
            <path d="M14.6880437,14.4344784 C14.6880437,12.2979548 16.3001533,10.5596393 18.5204986,10.1153778 C18.8831966,10.0398696 19.3048307,10 19.6969077,10 L34.3444208,10 C37.1297345,10 39.3114419,11.9477531 39.3114419,14.4344784 C39.3114419,16.1771877 38.2363461,17.656432 36.6329612,18.3789672 C36.4422643,18.4676568 36.217737,18.5490234 36.0124397,18.6147676 C35.8119498,18.6790471 35.5981058,18.7547181 35.3856862,18.7954014 C35.2890024,18.8167194 35.1914282,18.8360846 35.0926077,18.8533344 C34.9145528,19.4279451 34.6298429,20.8341223 34.5352957,24.0959456 C34.4630054,26.5854373 34.542596,28.8799747 34.5434862,28.9056866 L34.5450887,28.9414879 L34.5445546,28.9774519 C34.5434862,29.0610967 34.4833037,35.7972728 37.3213217,40.3126295 C46.1697628,54.3898608 50.3494249,61.8134217 52.3050025,65.8171454 C53.975158,69.2387726 53.9920732,70.1074422 53.9974149,70.5956416 L53.9984832,70.7048356 C54.0004418,70.8853066 54.0004418,71.0639876 53.9988393,71.2423432 C53.9984832,71.2784699 53.997949,71.3189905 53.9974149,71.3551172 C53.975336,72.9629208 53.7876661,74.6750363 52.1691465,75.9788543 C50.4347132,77.3760811 47.3340642,78 42.1259566,78 L11.8957859,78 C11.7052671,78 11.4956964,77.9990236 11.3110534,77.9972335 C6.44107222,77.9532956 3.50156291,77.3248202 1.83069519,75.979017 C0.213422003,74.6760127 0.0246837475,72.96585 0.00242687777,71.3590228 C0.0018927129,71.3220824 0.00153660298,71.2810737 0.00118049306,71.2444587 C-0.000422001559,71.0652895 -0.000422001559,70.8861203 0.00135854802,70.7049983 L0.00224882281,70.5961298 C0.00759047155,70.1074422 0.0241495827,69.2376335 1.69982479,65.806405 C3.65771711,61.8002403 7.83791336,54.3771676 16.678342,40.3126295 C19.5307825,35.7748156 19.4563555,29.0435215 19.4552872,28.97615 L19.454753,28.9405115 L19.4558213,28.9045474 C19.4572458,28.8711871 19.5363022,26.5808808 19.4641899,24.0959456 C19.3694647,20.8300539 19.0842206,19.4235513 18.9058096,18.849917 C18.8399292,18.8385256 18.774405,18.8261579 18.709593,18.8128138 C18.4918318,18.7752224 18.27229,18.7019925 18.0669926,18.6396657 C17.8551072,18.5755489 17.6245261,18.4954842 17.4281315,18.4071201 C15.79056,17.6943489 14.6880437,16.1994821 14.6880437,14.4344784 Z M17.9452031,14.4344784 C17.9452031,15.2452149 18.6531496,15.8600208 19.5957725,15.8762941 C20.1648362,15.8863835 20.7114649,16.103795 21.1400432,16.4854043 C21.3120443,16.6386989 21.4833331,16.8325141 21.6442948,17.1104623 C22.1453415,17.9828747 22.57481,19.6876672 22.7104879,23.7088034 C22.7972007,26.2729896 22.7233079,28.6461272 22.7126246,28.9685016 C22.7126246,28.9776146 22.7126246,28.9894941 22.7128026,29.0012109 C22.7177882,29.7719151 22.6711378,36.2306312 19.8571572,41.2000134 C19.7394629,41.4081491 19.6162488,41.6146575 19.4880493,41.8188876 C18.0094809,44.171358 14.22243,50.1970411 10.6444156,56.2565727 C10.4756195,56.5421694 10.3073576,56.8279288 10.1399859,57.1135255 C5.4097779,65.1735358 3.85642645,68.5754723 3.42998482,69.8975164 C3.41609653,69.9393388 3.40292047,69.9839277 3.39099078,70.0215191 C3.28487003,70.3642351 3.2585179,70.5502391 3.2569154,70.6499945 L3.2569154,70.7591884 C3.25727151,72.3307025 3.29323861,73.1889571 3.98444796,73.7456672 C5.0362186,74.5930187 7.67855418,75.0216579 11.8546552,75.0231225 L42.1446524,75.0231225 C46.3209315,75.0216579 48.9634451,74.5930187 50.0152157,73.7456672 C50.706247,73.1892826 50.7423922,72.3311907 50.7427483,70.7601648 L50.7427483,70.6498318 C50.7407897,70.5473099 50.7131912,70.3539829 50.5997701,69.9930408 C50.5881966,69.9577277 50.5759108,69.9155798 50.5625567,69.8766866 C50.1279245,68.542112 48.5665606,65.1343171 43.8612803,57.1164547 C43.6785959,56.804658 43.4948432,56.4928613 43.3107343,56.1812273 C39.7487449,50.1522895 35.9891145,44.1694052 34.5151755,41.8245832 C34.3567066,41.5723469 34.2062502,41.3168558 34.0638062,41.0589238 C31.286683,36.0356769 31.2811633,29.5751708 31.2870391,28.9699662 C31.2868611,28.9608531 31.286505,28.9484854 31.2859708,28.9361177 C31.2720825,28.5120351 31.2047777,26.2005734 31.2889977,23.7088034 C31.4269903,19.6217603 31.8683886,17.9265691 32.3806527,17.0668498 C32.5332458,16.8126606 32.6947416,16.6308877 32.8571277,16.485567 C32.8738649,16.4704328 32.8907801,16.4556241 32.9080515,16.4411409 C33.3289734,16.0865453 33.8570844,15.8862208 34.4046034,15.8759686 C35.3468702,15.8595326 36.0546387,15.2448895 36.0546387,14.4344784 C36.0546387,13.6043766 35.3183814,12.9768775 34.3445989,12.9768775 L20.903052,12.9768775 C20.8838221,12.9768775 19.6183855,12.9811086 19.6030728,12.9887571 C18.6563546,13.0043794 17.9453811,13.6211381 17.9453811,14.4344784 L17.9452031,14.4344784 Z" id="path62022" fill="#9B9B9B"></path>
            <path d="M30,17 C29.4485329,17 29,16.5514671 29,16 C29,15.4485329 29.4485329,15 30,15 C30.5514671,15 31,15.4485329 31,16 C31,16.5514671 30.5514671,17 30,17" id="path63310" fill="#7ED321"></path>
            <path d="M25,20 C24.44869,20 24,19.551466 24,19 C24,18.448534 24.44869,18 25,18 C25.551466,18 26,18.448534 26,19 C26,19.551466 25.551466,20 25,20" id="path63088" fill="#7ED321"></path>
            <path d="M28.5,27 C27.6729749,27 27,26.3271623 27,25.4999116 C27,24.6728377 27.6729749,24 28.5,24 C29.3270251,24 30,24.6728377 30,25.4999116 C30,26.3271623 29.3270251,27 28.5,27" id="path62686" fill="#7ED321"></path>
            <path d="M25.9999079,36 C24.8972221,36 24,35.1028192 24,34 C24,32.8971808 24.8972221,32 25.9999079,32 C27.1025936,32 28,32.8971808 28,34 C28,35.1028192 27.1025936,36 25.9999079,36" id="path62440" fill="#7ED321"></path>
            <path d="M30.5,43 C29.6728848,43 29,42.3269681 29,41.5000948 C29,40.6730319 29.6728848,40 30.5,40 C31.3271152,40 32,40.6730319 32,41.5000948 C32,42.3269681 31.3271152,43 30.5,43" id="path62894" fill="#7ED321"></path>
            <path d="M24.0000938,48 C22.8973313,48 22,47.3271423 22,46.4999296 C22,45.6728577 22.8973313,45 24.0000938,45 C25.1026687,45 26,45.6728577 26,46.4999296 C26,47.3271423 25.1026687,48 24.0000938,48" id="path63518" fill="#7ED321"></path>
            <path d="M15.2965172,51.991705 C15.4576111,51.8502713 16.2997407,51.3483519 17.0923436,51.1728182 C17.2781127,51.1317358 17.464763,51.1101392 17.642777,51.1140363 C18.0116714,51.121993 18.4041835,51.2548205 18.8356471,51.4457805 C19.6256063,51.794737 20.5542754,52.3362773 21.7355129,52.6470744 C22.0709195,52.7355719 22.4759454,52.7602538 22.9315555,52.7376829 C24.5167614,52.6600648 26.6971686,52.0094046 28.5423454,51.5087843 C29.0989476,51.35777 29.624882,51.2205582 30.0945923,51.1169592 C30.3267155,51.0656468 30.5803414,51.0321963 30.8498299,51.0146592 C31.1485762,50.9951735 31.4727027,50.9956606 31.8149831,51.012873 C34.2592387,51.1383934 37.5200675,52.1024488 38.7827332,52.4488073 C38.8692727,52.4725149 38.9461183,52.4932996 39.0129176,52.5106744 C46.5540139,65.0690506 48.5921861,69.6520891 48.9286502,70.8097025 C49.0227685,71.13349 49.0023233,71.7138393 48.9861082,72.100793 C48.9845219,72.1316454 48.9836406,72.1616859 48.9825831,72.1909144 C48.9668968,72.5504257 48.7975191,72.8980832 48.5312031,73.1327236 C48.5142829,73.1466884 48.496834,73.1645503 48.4790326,73.1777031 C48.348959,73.2851993 48.1912139,73.3704493 48.0147862,73.4224111 C46.3465659,73.91475 43.8196483,74 41.9709464,74 L12.0258183,74 C10.1811702,74 7.65090384,73.9150748 5.98215474,73.4225735 C5.80713701,73.3709364 5.65097819,73.2861736 5.5212571,73.1801388 C5.22251082,72.9355932 5.02969169,72.5593567 5.01523907,72.1813339 C4.98739133,71.4400652 4.99373639,71.0615553 5.06776201,70.8033697 C5.44370644,69.5129287 6.69139074,66.1691812 15.2965172,51.9915427" id="path62240" fill="#7ED321"></path>
        </g>
        <text id="Presentr" font-family="Helvetica-Bold, Helvetica" font-size="24" font-weight="bold" letter-spacing="-0.214285716" fill="#7ED321">
            <tspan x="41.1657366" y="119">Presentr</tspan>
        </text>
    </g>
</svg>